HIERARCHY
ROOT Hips
{
	OFFSET 0.00000 0.00000 0.00000
	CHANNELS 6 Xposition Yposition Zposition Zrotation Yrotation Xrotation 
	JOINT LHipJoint
	{
		OFFSET 0 0 0
		CHANNELS 3 Zrotation Yrotation Xrotation
		JOINT LeftHip
		{
			OFFSET 1.28858 -1.83292 1.03970
			CHANNELS 3 Zrotation Yrotation Xrotation
			JOINT LeftKnee
			{
				OFFSET 2.47846 -6.80952 0.00000
				CHANNELS 3 Zrotation Yrotation Xrotation
				JOINT LeftAnkle
				{
					OFFSET 2.75274 -7.56311 0.00000
					CHANNELS 3 Zrotation Yrotation Xrotation
					JOINT LeftToe
					{
						OFFSET 0.12848 -0.35301 1.68223
						CHANNELS 3 Zrotation Yrotation Xrotation
						End Site
						{
							OFFSET 0.00000 -0.00000 0.87311
						}
					}
				}
			}
		}
	}
	JOINT RHipJoint
	{
		OFFSET 0 0 0
		CHANNELS 3 Zrotation Yrotation Xrotation
		JOINT RightHip
		{
			OFFSET -1.31183 -1.83292 1.03970
			CHANNELS 3 Zrotation Yrotation Xrotation
			JOINT RightKnee
			{
				OFFSET -2.44740 -6.72417 0.00000
				CHANNELS 3 Zrotation Yrotation Xrotation
				JOINT RightAnkle
				{
					OFFSET -2.67343 -7.34519 0.00000
					CHANNELS 3 Zrotation Yrotation Xrotation
					JOINT RightToe
					{
						OFFSET -0.16914 -0.46471 1.77626
						CHANNELS 3 Zrotation Yrotation Xrotation
						End Site
						{
							OFFSET -0.00000 -0.00000 0.92777
						}
					}
				}
			}
		}
	}
	JOINT lowerback
	{
		OFFSET 0 0 0
		CHANNELS 3 Zrotation Yrotation Xrotation
		JOINT Chest
		{
			OFFSET 0.01249 2.14252 0.03842
			CHANNELS 3 Zrotation Yrotation Xrotation
			JOINT Chest2
			{
				OFFSET -0.02957 2.14199 -0.03751
				CHANNELS 3 Zrotation Yrotation Xrotation
				JOINT lowerneck
				{
					OFFSET 0 0 0
					CHANNELS 3 Zrotation Yrotation Xrotation
					JOINT Neck
					{
						OFFSET -0.01678 1.65709 -0.05476
						CHANNELS 3 Zrotation Yrotation Xrotation
						JOINT Head
						{
							OFFSET 0.07912 1.58331 -0.11843
							CHANNELS 3 Zrotation Yrotation Xrotation
							End Site
							{
								OFFSET 0.03298 1.73940 -0.04271
							}
						}
					}
				}
				JOINT LeftCollar
				{
					OFFSET 0 0 0
					CHANNELS 3 Zrotation Yrotation Xrotation
					JOINT LeftShoulder
					{
						OFFSET 3.39556 1.16496 0.08673
CHANNELS 3 Zrotation Xrotation Yrotation
						JOINT LeftElbow
						{
OFFSET 0 -5.239100 -0.000000
CHANNELS 3 Zrotation Xrotation Yrotation
							JOINT LeftWrist
							{
OFFSET 0 -3.314670 0.000000
CHANNELS 3 Zrotation Xrotation Yrotation
								JOINT lhand
								{
									OFFSET 0 0 0
CHANNELS 3 Zrotation Xrotation Yrotation
									JOINT LFingers
									{
OFFSET 0 -0.965900 0.000000
CHANNELS 3 Zrotation Xrotation Yrotation
										End Site
										{
OFFSET 0 -0.778730 0.000000
										}
									}
								}
								JOINT LThumb
								{
OFFSET 0 0.000000 0.000000
CHANNELS 3 Zrotation Xrotation Yrotation
									End Site
									{
OFFSET 0 -0.790620 0.790620
									}
								}
							}
						}
					}
				}
				JOINT RightCollar
				{
					OFFSET 0 0 0
					CHANNELS 3 Zrotation Yrotation Xrotation
					JOINT RightShoulder
					{
						OFFSET -3.27193 1.31331 0.33940
CHANNELS 3 Zrotation Xrotation Yrotation
						JOINT RightElbow
						{
OFFSET 0 -5.302520 0.000000
CHANNELS 3 Zrotation Xrotation Yrotation
							JOINT RightWrist
							{
OFFSET 0 -3.678750 0.000000
CHANNELS 3 Zrotation Xrotation Yrotation
								JOINT rhand
								{
									OFFSET 0 0 0
CHANNELS 3 Zrotation Xrotation Yrotation
									JOINT RFingers
									{
OFFSET 0 -0.594810 0.000000
CHANNELS 3 Zrotation Xrotation Yrotation
										End Site
										{
OFFSET 0 -0.479550 0.000000
										}
									}
								}
								JOINT RThumb
								{
OFFSET 0 0.000000 0.000000
CHANNELS 3 Zrotation Xrotation Yrotation
									End Site
									{
OFFSET 0 -0.486870 0.486870
									}
								}
							}
						}
					}
				}
			}
		}
	}
}
MOTION
Frames: 8
Frame Time: 0.008333333333333333
7.074600 17.868400 -29.383900 -177.986000 -1.910600 -172.752000 0.000000 0.000000 0.000000 -17.687700 2.281500 -20.543800 2.294400 9.454000 27.226100 -1.180900 -20.435400 -0.949400 0.029900 1.117100 3.071100 0.000000 0.000000 0.000000 22.808200 7.758500 -6.479100 -0.907100 -6.069300 16.985600 -0.152000 -2.516000 -8.739300 -0.101700 2.056200 -5.661000 -3.134300 0.035200 -7.713900 -1.972900 0.371700 0.816500 -0.248900 0.092000 5.175300 -3.528700 2.982700 3.532400 3.386800 2.853000 12.100600 1.741700 1.019600 3.171900 0.000000 -0.000000 0.000000 14.310900 -6.071000 -32.250000 13.606600 -22.169500 2.677900 13.602400 -18.254400 9.944700 0.000000 0.000000 0.000000 -7.125000 0.000000 0.000000 -9.521400 19.823400 -5.808300 0.000000 -0.000000 0.000000 -4.906400 7.452700 30.664700 -12.703400 -20.851100 -2.346700 -8.681200 5.706300 32.044200 0.000000 0.000000 0.000000 7.125000 0.000000 -0.000000 26.937500 60.254700 -10.470700
7.069017 17.835542 -29.401790 -177.931376 -1.967349 -172.913775 0.000000 0.000000 0.000000 -17.770206 3.523436 -20.127912 2.196407 9.263421 26.623120 -1.344959 -21.042243 0.918648 0.285063 3.362661 9.297329 0.000000 0.000000 0.000000 23.051884 8.015777 -6.485598 -1.005061 -6.378140 17.886012 -0.208950 -2.822075 -10.140744 -0.248560 3.201601 -8.841127 -2.916883 0.072639 -7.462406 -1.999497 0.380695 0.580040 -0.396050 0.107241 4.786795 -3.873828 3.073374 3.725909 3.712211 2.995145 11.546791 1.898128 1.105982 2.933546 0.000000 0.000000 0.000000 14.236263 -5.755754 -32.476265 13.983214 -22.710595 2.821695 13.402068 -18.287371 9.262237 0.000000 0.000000 0.000000 -7.125000 0.000000 0.000000 -9.687370 20.523660 -5.757310 0.000000 0.000000 0.000000 -4.824968 7.900657 30.149873 -12.638123 -20.754683 -2.323487 -8.600013 6.087608 32.424992 0.000000 0.000000 0.000000 7.125000 0.000000 0.000000 27.368577 60.569143 -10.861506
7.063259 17.800847 -29.417169 -177.879519 -2.035479 -173.094710 0.000000 0.000000 0.000000 -17.834402 4.545294 -19.612494 2.097446 9.065623 26.001185 -1.463327 -21.422088 2.703955 0.711668 5.333297 14.875540 0.000000 0.000000 0.000000 23.297719 8.267027 -6.592352 -1.129539 -6.747875 18.971451 -0.276823 -3.073041 -11.544132 -0.321860 3.645706 -10.081950 -2.762618 0.053663 -7.297028 -2.003647 0.328846 0.438256 -0.491998 0.088233 4.546860 -3.865390 3.047301 3.836072 3.580312 3.041439 10.891740 1.839757 1.154639 2.691239 0.000000 0.000000 0.000000 14.053137 -5.629931 -32.251709 14.184659 -22.997994 2.899872 14.248222 -18.504422 10.124116 0.000000 0.000000 0.000000 -7.125000 0.000000 0.000000 -9.062833 19.604384 -5.559202 0.000000 0.000000 0.000000 -4.737305 8.138652 29.502991 -12.543660 -20.614920 -2.290147 -8.002547 6.391385 32.993814 0.000000 0.000000 0.000000 7.125000 0.000000 0.000000 28.515928 60.920800 -11.602077
7.052816 17.767451 -29.437421 -177.807414 -1.930493 -173.455740 0.000000 0.000000 0.000000 -17.884004 5.460136 -18.816181 1.995157 8.855633 25.344895 -1.505116 -21.457045 3.934030 1.187429 6.893196 19.408084 0.000000 0.000000 0.000000 23.569803 8.419423 -6.557891 -1.266622 -7.132117 20.107967 -0.351048 -3.222958 -12.838417 -0.335698 3.723291 -10.299397 -2.587122 0.065532 -7.089658 -1.981260 0.321744 0.405033 -0.567506 0.091365 4.396064 -3.786738 2.983629 3.993131 3.231296 3.063056 10.088147 1.694520 1.193339 2.398466 0.000000 0.000000 0.000000 13.759737 -5.564111 -31.866084 14.283879 -23.139044 2.938740 15.391953 -18.984353 11.452259 0.000000 0.000000 0.000000 -7.125000 0.000000 0.000000 -8.231815 18.182797 -5.304540 0.000000 0.000000 0.000000 -4.717436 8.250488 28.896440 -12.431394 -20.448412 -2.250741 -7.095552 6.481342 33.369272 0.000000 0.000000 0.000000 7.125000 0.000000 0.000000 29.804158 61.025285 -12.252313
7.037229 17.706432 -29.461863 -177.689471 -1.487812 -174.123856 0.000000 0.000000 0.000000 -17.894450 6.397893 -17.442191 1.905844 8.666866 24.758896 -1.505043 -21.240086 5.481929 2.428731 9.630213 27.847060 0.000000 0.000000 0.000000 23.864625 8.467124 -6.057262 -1.383212 -7.441068 21.029186 -0.429821 -3.057825 -13.881206 -0.342667 3.761415 -10.406466 -2.306444 0.202859 -6.769606 -1.946970 0.479636 0.532445 -0.673016 0.179134 4.348679 -3.799424 3.159241 3.948933 3.411550 3.344846 9.597683 1.748833 1.360457 2.229965 0.000000 0.000000 0.000000 13.401058 -5.519901 -31.415563 14.446220 -23.368902 3.002882 15.792049 -19.201273 11.844624 0.000000 0.000000 0.000000 -7.125000 0.000000 0.000000 -7.948095 17.754784 -5.196171 0.000000 0.000000 0.000000 -4.713718 8.309551 28.109346 -12.332965 -20.302110 -2.216452 -6.338755 6.763142 33.248274 0.000000 0.000000 0.000000 7.125000 0.000000 0.000000 30.451775 60.740137 -12.338744
7.023415 17.688637 -29.486547 -177.588982 -1.067121 -174.787185 0.000000 0.000000 0.000000 -17.817317 6.861488 -16.299816 1.838557 8.521378 24.309140 -1.475207 -21.057398 5.213710 2.558691 9.943634 28.794566 0.000000 0.000000 0.000000 24.091146 8.385721 -5.358118 -1.459278 -7.634933 21.610532 -0.502411 -2.771627 -14.687652 -0.370276 3.908103 -10.818174 -2.018158 0.365251 -6.399632 -1.924201 0.670068 0.667396 -0.792835 0.283235 4.282148 -3.808026 3.138913 4.120111 3.286842 3.392107 8.827447 1.693132 1.409802 1.947470 0.000000 0.000000 0.000000 13.035633 -5.555917 -31.021812 14.547141 -23.511552 3.042995 16.008315 -19.396848 12.063243 0.000000 0.000000 0.000000 -7.125000 0.000000 0.000000 -7.796703 17.515008 -5.136737 0.000000 0.000000 0.000000 -4.720122 8.440201 27.443781 -12.306092 -20.262128 -2.207140 -6.189627 6.981610 33.066659 0.000000 0.000000 0.000000 7.125000 0.000000 0.000000 30.424498 60.549846 -12.187925
7.019813 17.691323 -29.502402 -177.451850 -1.008340 -175.098195 0.000000 0.000000 0.000000 -17.658052 6.845493 -15.663257 1.791911 8.418408 23.992311 -1.446453 -20.924530 4.689609 2.386521 9.627289 27.778987 0.000000 0.000000 0.000000 24.313474 8.377583 -4.877060 -1.493113 -7.719145 21.864241 -0.551927 -2.700049 -15.274209 -0.452798 4.314299 -11.963111 -1.822490 0.380818 -6.225542 -1.845778 0.672905 0.681110 -0.821758 0.291197 4.199251 -3.530904 3.095796 4.167171 2.781351 3.432430 8.165114 1.470416 1.456255 1.734530 0.000000 0.000000 0.000000 12.654305 -5.528119 -30.644814 14.660870 -23.671442 3.088502 16.324669 -19.583001 12.139992 0.000000 0.000000 0.000000 -7.125000 0.000000 0.000000 -7.576596 17.413123 -5.006317 0.000000 0.000000 0.000000 -4.804391 8.596482 27.194907 -12.325174 -20.290480 -2.213765 -6.543028 6.915167 33.155143 0.000000 0.000000 0.000000 7.125000 0.000000 0.000000 30.154182 60.709672 -12.183351
7.017544 17.696750 -29.519473 -177.312574 -0.958609 -175.372973 0.000000 0.000000 0.000000 -17.483860 6.627397 -15.085798 1.768183 8.365560 23.830031 -1.407272 -20.746156 4.033550 2.225044 9.319656 26.800683 0.000000 0.000000 0.000000 24.520231 8.221590 -4.284754 -1.481295 -7.689791 21.775742 -0.604545 -2.479228 -15.792347 -0.532782 4.675935 -12.986707 -1.649365 0.379999 -6.191627 -1.761226 0.662044 0.761658 -0.832355 0.290993 4.264646 -3.475533 3.066792 3.918286 2.573916 3.469606 7.709755 1.392525 1.498298 1.633600 0.000000 0.000000 0.000000 12.287692 -5.573496 -30.262889 14.802385 -23.870057 3.145547 16.508499 -19.702985 11.972983 0.000000 0.000000 0.000000 -7.125000 0.000000 0.000000 -7.448453 17.571412 -4.893975 0.000000 0.000000 0.000000 -4.889756 8.554335 26.959424 -12.286311 -20.232569 -2.200270 -6.716563 6.690801 33.108607 0.000000 0.000000 0.000000 7.125000 0.000000 0.000000 29.933219 60.711450 -12.085814
